<svg width="336" height="223" viewBox="0 0 336 223" fill="none" xmlns="http://www.w3.org/2000/svg">
<path fill-rule="evenodd" clip-rule="evenodd" d="M153.06 0C164.231 0 171.734 8.95844 169.726 19.8978L163.37 54.4602H191.027L196.144 26.5944C198.152 15.6551 208.946 6.69665 220.117 6.69665C231.288 6.69665 238.791 15.6551 236.783 26.5944L231.665 54.4602H289.771C300.942 54.4602 309.199 63.4186 308.128 74.358C307.056 85.2973 297.032 94.2558 285.861 94.2558H156.064L152.229 115.114H111.606L115.44 94.2558H98.955L83.6173 54.475H122.747L129.102 19.9126C131.11 8.97322 141.904 0.0147829 153.075 0.0147829L153.06 0Z" fill="url(#paint0_linear_226_40)"/>
<path fill-rule="evenodd" clip-rule="evenodd" d="M183.146 223C171.975 223 164.472 214.042 166.48 203.102L172.836 168.54H145.179L140.062 196.406C138.054 207.345 127.26 216.303 116.089 216.303C104.918 216.303 97.4152 207.345 99.423 196.406L104.541 168.54H46.4505C35.2794 168.54 27.0218 159.581 28.0936 148.642H28.0785C29.1503 137.703 39.1742 128.744 50.3454 128.744H180.142L183.977 107.886H224.6L220.766 128.744H253.857L229.944 168.525H213.459L207.119 203.088C205.111 214.027 194.318 222.985 183.146 222.985V223Z" fill="url(#paint1_linear_226_40)"/>
<mask id="path-3-inside-1_226_40" fill="white">
<path d="M3 128H254V169H3V128Z"/>
</mask>
<path d="M3 169.5H3.99603V168.5H3V169.5ZM5.9881 169.5H7.98016V168.5H5.9881V169.5ZM9.97222 169.5H11.9643V168.5H9.97222V169.5ZM13.9563 169.5H15.9484V168.5H13.9563V169.5ZM17.9405 169.5H19.9325V168.5H17.9405V169.5ZM21.9246 169.5H23.9167V168.5H21.9246V169.5ZM25.9087 169.5H27.9008V168.5H25.9087V169.5ZM29.8929 169.5H31.8849V168.5H29.8929V169.5ZM33.877 169.5H35.869V168.5H33.877V169.5ZM37.8611 169.5H39.8532V168.5H37.8611V169.5ZM41.8452 169.5H43.8373V168.5H41.8452V169.5ZM45.8294 169.5H47.8214V168.5H45.8294V169.5ZM49.8135 169.5H51.8056V168.5H49.8135V169.5ZM53.7976 169.5H55.7897V168.5H53.7976V169.5ZM57.7818 169.5H59.7738V168.5H57.7818V169.5ZM61.7659 169.5H63.758V168.5H61.7659V169.5ZM65.75 169.5H67.7421V168.5H65.75V169.5ZM69.7342 169.5H71.7262V168.5H69.7342V169.5ZM73.7183 169.5H75.7104V168.5H73.7183V169.5ZM77.7024 169.5H79.6945V168.5H77.7024V169.5ZM81.6866 169.5H83.6786V168.5H81.6866V169.5ZM85.6707 169.5H87.6628V168.5H85.6707V169.5ZM89.6548 169.5H91.6469V168.5H89.6548V169.5ZM93.6389 169.5H95.631V168.5H93.6389V169.5ZM97.6231 169.5H99.6151V168.5H97.6231V169.5ZM101.607 169.5H103.599V168.5H101.607V169.5ZM105.591 169.5H107.583V168.5H105.591V169.5ZM109.575 169.5H111.568V168.5H109.575V169.5ZM113.56 169.5H115.552V168.5H113.56V169.5ZM117.544 169.5H119.536V168.5H117.544V169.5ZM121.528 169.5H123.52V168.5H121.528V169.5ZM125.512 169.5H127.504V168.5H125.512V169.5ZM129.496 169.5H131.488V168.5H129.496V169.5ZM133.48 169.5H135.472V168.5H133.48V169.5ZM137.464 169.5H139.456V168.5H137.464V169.5ZM141.449 169.5H143.441V168.5H141.449V169.5ZM145.433 169.5H147.425V168.5H145.433V169.5ZM149.417 169.5H151.409V168.5H149.417V169.5ZM153.401 169.5H155.393V168.5H153.401V169.5ZM157.385 169.5H159.377V168.5H157.385V169.5ZM161.369 169.5H163.361V168.5H161.369V169.5ZM165.353 169.5H167.345V168.5H165.353V169.5ZM169.337 169.5H171.329V168.5H169.337V169.5ZM173.322 169.5H175.314V168.5H173.322V169.5ZM177.306 169.5H179.298V168.5H177.306V169.5ZM181.29 169.5H183.282V168.5H181.29V169.5ZM185.274 169.5H187.266V168.5H185.274V169.5ZM189.258 169.5H191.25V168.5H189.258V169.5ZM193.242 169.5H195.234V168.5H193.242V169.5ZM197.226 169.5H199.218V168.5H197.226V169.5ZM201.21 169.5H203.203V168.5H201.21V169.5ZM205.195 169.5H207.187V168.5H205.195V169.5ZM209.179 169.5H211.171V168.5H209.179V169.5ZM213.163 169.5H215.155V168.5H213.163V169.5ZM217.147 169.5H219.139V168.5H217.147V169.5ZM221.131 169.5H223.123V168.5H221.131V169.5ZM225.115 169.5H227.107V168.5H225.115V169.5ZM229.099 169.5H231.091V168.5H229.099V169.5ZM233.084 169.5H235.076V168.5H233.084V169.5ZM237.068 169.5H239.06V168.5H237.068V169.5ZM241.052 169.5H243.044V168.5H241.052V169.5ZM245.036 169.5H247.028V168.5H245.036V169.5ZM249.02 169.5H251.012V168.5H249.02V169.5ZM253.004 169.5H254V168.5H253.004V169.5ZM254 127.5H253.004V128.5H254V127.5ZM251.012 127.5H249.02V128.5H251.012V127.5ZM247.028 127.5H245.036V128.5H247.028V127.5ZM243.044 127.5H241.052V128.5H243.044V127.5ZM239.06 127.5H237.067V128.5H239.06V127.5ZM235.075 127.5H233.083V128.5H235.075V127.5ZM231.091 127.5H229.099V128.5H231.091V127.5ZM227.107 127.5H225.115V128.5H227.107V127.5ZM223.123 127.5H221.131V128.5H223.123V127.5ZM219.139 127.5H217.147V128.5H219.139V127.5ZM215.155 127.5H213.163V128.5H215.155V127.5ZM211.171 127.5H209.179V128.5H211.171V127.5ZM207.186 127.5H205.194V128.5H207.186V127.5ZM203.202 127.5H201.21V128.5H203.202V127.5ZM199.218 127.5H197.226V128.5H199.218V127.5ZM195.234 127.5H193.242V128.5H195.234V127.5ZM191.25 127.5H189.258V128.5H191.25V127.5ZM187.266 127.5H185.274V128.5H187.266V127.5ZM183.282 127.5H181.29V128.5H183.282V127.5ZM179.298 127.5H177.306V128.5H179.298V127.5ZM175.313 127.5H173.321V128.5H175.313V127.5ZM171.329 127.5H169.337V128.5H171.329V127.5ZM167.345 127.5H165.353V128.5H167.345V127.5ZM163.361 127.5H161.369V128.5H163.361V127.5ZM159.377 127.5H157.385V128.5H159.377V127.5ZM155.393 127.5H153.401V128.5H155.393V127.5ZM151.409 127.5H149.417V128.5H151.409V127.5ZM147.425 127.5H145.432V128.5H147.425V127.5ZM143.44 127.5H141.448V128.5H143.44V127.5ZM139.456 127.5H137.464V128.5H139.456V127.5ZM135.472 127.5H133.48V128.5H135.472V127.5ZM131.488 127.5H129.496V128.5H131.488V127.5ZM127.504 127.5H125.512V128.5H127.504V127.5ZM123.52 127.5H121.528V128.5H123.52V127.5ZM119.536 127.5H117.544V128.5H119.536V127.5ZM115.551 127.5H113.559V128.5H115.551V127.5ZM111.567 127.5H109.575V128.5H111.567V127.5ZM107.583 127.5H105.591V128.5H107.583V127.5ZM103.599 127.5H101.607V128.5H103.599V127.5ZM99.615 127.5H97.6229V128.5H99.615V127.5ZM95.6308 127.5H93.6388V128.5H95.6308V127.5ZM91.6467 127.5H89.6546V128.5H91.6467V127.5ZM87.6626 127.5H85.6705V128.5H87.6626V127.5ZM83.6784 127.5H81.6864V128.5H83.6784V127.5ZM79.6943 127.5H77.7022V128.5H79.6943V127.5ZM75.7102 127.5H73.7181V128.5H75.7102V127.5ZM71.7261 127.5H69.734V128.5H71.7261V127.5ZM67.7419 127.5H65.7499V128.5H67.7419V127.5ZM63.7578 127.5H61.7657V128.5H63.7578V127.5ZM59.7737 127.5H57.7816V128.5H59.7737V127.5ZM55.7895 127.5H53.7975V128.5H55.7895V127.5ZM51.8054 127.5H49.8133V128.5H51.8054V127.5ZM47.8213 127.5H45.8292V128.5H47.8213V127.5ZM43.8371 127.5H41.8451V128.5H43.8371V127.5ZM39.853 127.5H37.8609V128.5H39.853V127.5ZM35.8689 127.5H33.8768V128.5H35.8689V127.5ZM31.8847 127.5H29.8927V128.5H31.8847V127.5ZM27.9006 127.5H25.9085V128.5H27.9006V127.5ZM23.9165 127.5H21.9244V128.5H23.9165V127.5ZM19.9323 127.5H17.9403V128.5H19.9323V127.5ZM15.9482 127.5H13.9561V128.5H15.9482V127.5ZM11.9641 127.5H9.97202V128.5H11.9641V127.5ZM7.97995 127.5H5.98789V128.5H7.97995V127.5ZM3.99582 127.5H3V128.5H3.99582V127.5ZM3 170H3.99603V168H3V170ZM5.9881 170H7.98016V168H5.9881V170ZM9.97222 170H11.9643V168H9.97222V170ZM13.9563 170H15.9484V168H13.9563V170ZM17.9405 170H19.9325V168H17.9405V170ZM21.9246 170H23.9167V168H21.9246V170ZM25.9087 170H27.9008V168H25.9087V170ZM29.8929 170H31.8849V168H29.8929V170ZM33.877 170H35.869V168H33.877V170ZM37.8611 170H39.8532V168H37.8611V170ZM41.8452 170H43.8373V168H41.8452V170ZM45.8294 170H47.8214V168H45.8294V170ZM49.8135 170H51.8056V168H49.8135V170ZM53.7976 170H55.7897V168H53.7976V170ZM57.7818 170H59.7738V168H57.7818V170ZM61.7659 170H63.758V168H61.7659V170ZM65.75 170H67.7421V168H65.75V170ZM69.7342 170H71.7262V168H69.7342V170ZM73.7183 170H75.7104V168H73.7183V170ZM77.7024 170H79.6945V168H77.7024V170ZM81.6866 170H83.6786V168H81.6866V170ZM85.6707 170H87.6628V168H85.6707V170ZM89.6548 170H91.6469V168H89.6548V170ZM93.6389 170H95.631V168H93.6389V170ZM97.6231 170H99.6151V168H97.6231V170ZM101.607 170H103.599V168H101.607V170ZM105.591 170H107.583V168H105.591V170ZM109.575 170H111.568V168H109.575V170ZM113.56 170H115.552V168H113.56V170ZM117.544 170H119.536V168H117.544V170ZM121.528 170H123.52V168H121.528V170ZM125.512 170H127.504V168H125.512V170ZM129.496 170H131.488V168H129.496V170ZM133.48 170H135.472V168H133.48V170ZM137.464 170H139.456V168H137.464V170ZM141.449 170H143.441V168H141.449V170ZM145.433 170H147.425V168H145.433V170ZM149.417 170H151.409V168H149.417V170ZM153.401 170H155.393V168H153.401V170ZM157.385 170H159.377V168H157.385V170ZM161.369 170H163.361V168H161.369V170ZM165.353 170H167.345V168H165.353V170ZM169.337 170H171.329V168H169.337V170ZM173.322 170H175.314V168H173.322V170ZM177.306 170H179.298V168H177.306V170ZM181.29 170H183.282V168H181.29V170ZM185.274 170H187.266V168H185.274V170ZM189.258 170H191.25V168H189.258V170ZM193.242 170H195.234V168H193.242V170ZM197.226 170H199.218V168H197.226V170ZM201.21 170H203.203V168H201.21V170ZM205.195 170H207.187V168H205.195V170ZM209.179 170H211.171V168H209.179V170ZM213.163 170H215.155V168H213.163V170ZM217.147 170H219.139V168H217.147V170ZM221.131 170H223.123V168H221.131V170ZM225.115 170H227.107V168H225.115V170ZM229.099 170H231.091V168H229.099V170ZM233.084 170H235.076V168H233.084V170ZM237.068 170H239.06V168H237.068V170ZM241.052 170H243.044V168H241.052V170ZM245.036 170H247.028V168H245.036V170ZM249.02 170H251.012V168H249.02V170ZM253.004 170H254V168H253.004V170ZM254 127H253.004V129H254V127ZM251.012 127H249.02V129H251.012V127ZM247.028 127H245.036V129H247.028V127ZM243.044 127H241.052V129H243.044V127ZM239.06 127H237.067V129H239.06V127ZM235.075 127H233.083V129H235.075V127ZM231.091 127H229.099V129H231.091V127ZM227.107 127H225.115V129H227.107V127ZM223.123 127H221.131V129H223.123V127ZM219.139 127H217.147V129H219.139V127ZM215.155 127H213.163V129H215.155V127ZM211.171 127H209.179V129H211.171V127ZM207.186 127H205.194V129H207.186V127ZM203.202 127H201.21V129H203.202V127ZM199.218 127H197.226V129H199.218V127ZM195.234 127H193.242V129H195.234V127ZM191.25 127H189.258V129H191.25V127ZM187.266 127H185.274V129H187.266V127ZM183.282 127H181.29V129H183.282V127ZM179.298 127H177.306V129H179.298V127ZM175.313 127H173.321V129H175.313V127ZM171.329 127H169.337V129H171.329V127ZM167.345 127H165.353V129H167.345V127ZM163.361 127H161.369V129H163.361V127ZM159.377 127H157.385V129H159.377V127ZM155.393 127H153.401V129H155.393V127ZM151.409 127H149.417V129H151.409V127ZM147.425 127H145.432V129H147.425V127ZM143.44 127H141.448V129H143.44V127ZM139.456 127H137.464V129H139.456V127ZM135.472 127H133.48V129H135.472V127ZM131.488 127H129.496V129H131.488V127ZM127.504 127H125.512V129H127.504V127ZM123.52 127H121.528V129H123.52V127ZM119.536 127H117.544V129H119.536V127ZM115.551 127H113.559V129H115.551V127ZM111.567 127H109.575V129H111.567V127ZM107.583 127H105.591V129H107.583V127ZM103.599 127H101.607V129H103.599V127ZM99.615 127H97.6229V129H99.615V127ZM95.6308 127H93.6388V129H95.6308V127ZM91.6467 127H89.6546V129H91.6467V127ZM87.6626 127H85.6705V129H87.6626V127ZM83.6784 127H81.6864V129H83.6784V127ZM79.6943 127H77.7022V129H79.6943V127ZM75.7102 127H73.7181V129H75.7102V127ZM71.7261 127H69.734V129H71.7261V127ZM67.7419 127H65.7499V129H67.7419V127ZM63.7578 127H61.7657V129H63.7578V127ZM59.7737 127H57.7816V129H59.7737V127ZM55.7895 127H53.7975V129H55.7895V127ZM51.8054 127H49.8133V129H51.8054V127ZM47.8213 127H45.8292V129H47.8213V127ZM43.8371 127H41.8451V129H43.8371V127ZM39.853 127H37.8609V129H39.853V127ZM35.8689 127H33.8768V129H35.8689V127ZM31.8847 127H29.8927V129H31.8847V127ZM27.9006 127H25.9085V129H27.9006V127ZM23.9165 127H21.9244V129H23.9165V127ZM19.9323 127H17.9403V129H19.9323V127ZM15.9482 127H13.9561V129H15.9482V127ZM11.9641 127H9.97202V129H11.9641V127ZM7.97995 127H5.98789V129H7.97995V127ZM3.99582 127H3V129H3.99582V127Z" fill="url(#paint2_linear_226_40)" mask="url(#path-3-inside-1_226_40)"/>
<mask id="path-5-inside-2_226_40" fill="white">
<path d="M335 95L84 95L84 54L335 54L335 95Z"/>
</mask>
<path d="M335 53.5L334.004 53.5L334.004 54.5L335 54.5L335 53.5ZM332.012 53.5L330.02 53.5L330.02 54.5L332.012 54.5L332.012 53.5ZM328.028 53.5L326.036 53.5L326.036 54.5L328.028 54.5L328.028 53.5ZM324.044 53.5L322.052 53.5L322.052 54.5L324.044 54.5L324.044 53.5ZM320.06 53.5L318.067 53.5L318.067 54.5L320.06 54.5L320.06 53.5ZM316.075 53.5L314.083 53.5L314.083 54.5L316.075 54.5L316.075 53.5ZM312.091 53.5L310.099 53.5L310.099 54.5L312.091 54.5L312.091 53.5ZM308.107 53.5L306.115 53.5L306.115 54.5L308.107 54.5L308.107 53.5ZM304.123 53.5L302.131 53.5L302.131 54.5L304.123 54.5L304.123 53.5ZM300.139 53.5L298.147 53.5L298.147 54.5L300.139 54.5L300.139 53.5ZM296.155 53.5L294.163 53.5L294.163 54.5L296.155 54.5L296.155 53.5ZM292.171 53.5L290.179 53.5L290.179 54.5L292.171 54.5L292.171 53.5ZM288.186 53.5L286.194 53.5L286.194 54.5L288.186 54.5L288.186 53.5ZM284.202 53.5L282.21 53.5L282.21 54.5L284.202 54.5L284.202 53.5ZM280.218 53.5L278.226 53.5L278.226 54.5L280.218 54.5L280.218 53.5ZM276.234 53.5L274.242 53.5L274.242 54.5L276.234 54.5L276.234 53.5ZM272.25 53.5L270.258 53.5L270.258 54.5L272.25 54.5L272.25 53.5ZM268.266 53.5L266.274 53.5L266.274 54.5L268.266 54.5L268.266 53.5ZM264.282 53.5L262.29 53.5L262.29 54.5L264.282 54.5L264.282 53.5ZM260.298 53.5L258.306 53.5L258.306 54.5L260.298 54.5L260.298 53.5ZM256.313 53.5L254.321 53.5L254.321 54.5L256.313 54.5L256.313 53.5ZM252.329 53.5L250.337 53.5L250.337 54.5L252.329 54.5L252.329 53.5ZM248.345 53.5L246.353 53.5L246.353 54.5L248.345 54.5L248.345 53.5ZM244.361 53.5L242.369 53.5L242.369 54.5L244.361 54.5L244.361 53.5ZM240.377 53.5L238.385 53.5L238.385 54.5L240.377 54.5L240.377 53.5ZM236.393 53.5L234.401 53.5L234.401 54.5L236.393 54.5L236.393 53.5ZM232.409 53.5L230.417 53.5L230.417 54.5L232.409 54.5L232.409 53.5ZM228.425 53.5L226.432 53.5L226.432 54.5L228.425 54.5L228.425 53.5ZM224.44 53.5L222.448 53.5L222.448 54.5L224.44 54.5L224.44 53.5ZM220.456 53.5L218.464 53.5L218.464 54.5L220.456 54.5L220.456 53.5ZM216.472 53.5L214.48 53.5L214.48 54.5L216.472 54.5L216.472 53.5ZM212.488 53.5L210.496 53.5L210.496 54.5L212.488 54.5L212.488 53.5ZM208.504 53.5L206.512 53.5L206.512 54.5L208.504 54.5L208.504 53.5ZM204.52 53.5L202.528 53.5L202.528 54.5L204.52 54.5L204.52 53.5ZM200.536 53.5L198.544 53.5L198.544 54.5L200.536 54.5L200.536 53.5ZM196.551 53.5L194.559 53.5L194.559 54.5L196.551 54.5L196.551 53.5ZM192.567 53.5L190.575 53.5L190.575 54.5L192.567 54.5L192.567 53.5ZM188.583 53.5L186.591 53.5L186.591 54.5L188.583 54.5L188.583 53.5ZM184.599 53.5L182.607 53.5L182.607 54.5L184.599 54.5L184.599 53.5ZM180.615 53.5L178.623 53.5L178.623 54.5L180.615 54.5L180.615 53.5ZM176.631 53.5L174.639 53.5L174.639 54.5L176.631 54.5L176.631 53.5ZM172.647 53.5L170.655 53.5L170.655 54.5L172.647 54.5L172.647 53.5ZM168.663 53.5L166.671 53.5L166.671 54.5L168.663 54.5L168.663 53.5ZM164.678 53.5L162.686 53.5L162.686 54.5L164.678 54.5L164.678 53.5ZM160.694 53.5L158.702 53.5L158.702 54.5L160.694 54.5L160.694 53.5ZM156.71 53.5L154.718 53.5L154.718 54.5L156.71 54.5L156.71 53.5ZM152.726 53.5L150.734 53.5L150.734 54.5L152.726 54.5L152.726 53.5ZM148.742 53.5L146.75 53.5L146.75 54.5L148.742 54.5L148.742 53.5ZM144.758 53.5L142.766 53.5L142.766 54.5L144.758 54.5L144.758 53.5ZM140.774 53.5L138.782 53.5L138.782 54.5L140.774 54.5L140.774 53.5ZM136.79 53.5L134.797 53.5L134.797 54.5L136.79 54.5L136.79 53.5ZM132.805 53.5L130.813 53.5L130.813 54.5L132.805 54.5L132.805 53.5ZM128.821 53.5L126.829 53.5L126.829 54.5L128.821 54.5L128.821 53.5ZM124.837 53.5L122.845 53.5L122.845 54.5L124.837 54.5L124.837 53.5ZM120.853 53.5L118.861 53.5L118.861 54.5L120.853 54.5L120.853 53.5ZM116.869 53.5L114.877 53.5L114.877 54.5L116.869 54.5L116.869 53.5ZM112.885 53.5L110.893 53.5L110.893 54.5L112.885 54.5L112.885 53.5ZM108.901 53.5L106.909 53.5L106.909 54.5L108.901 54.5L108.901 53.5ZM104.916 53.5L102.924 53.5L102.924 54.5L104.916 54.5L104.916 53.5ZM100.932 53.5L98.9403 53.5L98.9403 54.5L100.932 54.5L100.932 53.5ZM96.9482 53.5L94.9561 53.5L94.9561 54.5L96.9482 54.5L96.9482 53.5ZM92.9641 53.5L90.972 53.5L90.972 54.5L92.9641 54.5L92.9641 53.5ZM88.98 53.5L86.9879 53.5L86.9879 54.5L88.98 54.5L88.98 53.5ZM84.9958 53.5L84 53.5L84 54.5L84.9958 54.5L84.9958 53.5ZM84 95.5L84.996 95.5L84.996 94.5L84 94.5L84 95.5ZM86.9881 95.5L88.9802 95.5L88.9802 94.5L86.9881 94.5L86.9881 95.5ZM90.9722 95.5L92.9643 95.5L92.9643 94.5L90.9722 94.5L90.9722 95.5ZM94.9563 95.5L96.9484 95.5L96.9484 94.5L94.9563 94.5L94.9563 95.5ZM98.9405 95.5L100.933 95.5L100.933 94.5L98.9405 94.5L98.9405 95.5ZM102.925 95.5L104.917 95.5L104.917 94.5L102.925 94.5L102.925 95.5ZM106.909 95.5L108.901 95.5L108.901 94.5L106.909 94.5L106.909 95.5ZM110.893 95.5L112.885 95.5L112.885 94.5L110.893 94.5L110.893 95.5ZM114.877 95.5L116.869 95.5L116.869 94.5L114.877 94.5L114.877 95.5ZM118.861 95.5L120.853 95.5L120.853 94.5L118.861 94.5L118.861 95.5ZM122.845 95.5L124.837 95.5L124.837 94.5L122.845 94.5L122.845 95.5ZM126.829 95.5L128.821 95.5L128.821 94.5L126.829 94.5L126.829 95.5ZM130.814 95.5L132.806 95.5L132.806 94.5L130.814 94.5L130.814 95.5ZM134.798 95.5L136.79 95.5L136.79 94.5L134.798 94.5L134.798 95.5ZM138.782 95.5L140.774 95.5L140.774 94.5L138.782 94.5L138.782 95.5ZM142.766 95.5L144.758 95.5L144.758 94.5L142.766 94.5L142.766 95.5ZM146.75 95.5L148.742 95.5L148.742 94.5L146.75 94.5L146.75 95.5ZM150.734 95.5L152.726 95.5L152.726 94.5L150.734 94.5L150.734 95.5ZM154.718 95.5L156.71 95.5L156.71 94.5L154.718 94.5L154.718 95.5ZM158.702 95.5L160.694 95.5L160.694 94.5L158.702 94.5L158.702 95.5ZM162.687 95.5L164.679 95.5L164.679 94.5L162.687 94.5L162.687 95.5ZM166.671 95.5L168.663 95.5L168.663 94.5L166.671 94.5L166.671 95.5ZM170.655 95.5L172.647 95.5L172.647 94.5L170.655 94.5L170.655 95.5ZM174.639 95.5L176.631 95.5L176.631 94.5L174.639 94.5L174.639 95.5ZM178.623 95.5L180.615 95.5L180.615 94.5L178.623 94.5L178.623 95.5ZM182.607 95.5L184.599 95.5L184.599 94.5L182.607 94.5L182.607 95.5ZM186.591 95.5L188.583 95.5L188.583 94.5L186.591 94.5L186.591 95.5ZM190.575 95.5L192.568 95.5L192.568 94.5L190.575 94.5L190.575 95.5ZM194.56 95.5L196.552 95.5L196.552 94.5L194.56 94.5L194.56 95.5ZM198.544 95.5L200.536 95.5L200.536 94.5L198.544 94.5L198.544 95.5ZM202.528 95.5L204.52 95.5L204.52 94.5L202.528 94.5L202.528 95.5ZM206.512 95.5L208.504 95.5L208.504 94.5L206.512 94.5L206.512 95.5ZM210.496 95.5L212.488 95.5L212.488 94.5L210.496 94.5L210.496 95.5ZM214.48 95.5L216.472 95.5L216.472 94.5L214.48 94.5L214.48 95.5ZM218.464 95.5L220.456 95.5L220.456 94.5L218.464 94.5L218.464 95.5ZM222.449 95.5L224.441 95.5L224.441 94.5L222.449 94.5L222.449 95.5ZM226.433 95.5L228.425 95.5L228.425 94.5L226.433 94.5L226.433 95.5ZM230.417 95.5L232.409 95.5L232.409 94.5L230.417 94.5L230.417 95.5ZM234.401 95.5L236.393 95.5L236.393 94.5L234.401 94.5L234.401 95.5ZM238.385 95.5L240.377 95.5L240.377 94.5L238.385 94.5L238.385 95.5ZM242.369 95.5L244.361 95.5L244.361 94.5L242.369 94.5L242.369 95.5ZM246.353 95.5L248.345 95.5L248.345 94.5L246.353 94.5L246.353 95.5ZM250.337 95.5L252.329 95.5L252.329 94.5L250.337 94.5L250.337 95.5ZM254.322 95.5L256.314 95.5L256.314 94.5L254.322 94.5L254.322 95.5ZM258.306 95.5L260.298 95.5L260.298 94.5L258.306 94.5L258.306 95.5ZM262.29 95.5L264.282 95.5L264.282 94.5L262.29 94.5L262.29 95.5ZM266.274 95.5L268.266 95.5L268.266 94.5L266.274 94.5L266.274 95.5ZM270.258 95.5L272.25 95.5L272.25 94.5L270.258 94.5L270.258 95.5ZM274.242 95.5L276.234 95.5L276.234 94.5L274.242 94.5L274.242 95.5ZM278.226 95.5L280.218 95.5L280.218 94.5L278.226 94.5L278.226 95.5ZM282.21 95.5L284.203 95.5L284.203 94.5L282.21 94.5L282.21 95.5ZM286.195 95.5L288.187 95.5L288.187 94.5L286.195 94.5L286.195 95.5ZM290.179 95.5L292.171 95.5L292.171 94.5L290.179 94.5L290.179 95.5ZM294.163 95.5L296.155 95.5L296.155 94.5L294.163 94.5L294.163 95.5ZM298.147 95.5L300.139 95.5L300.139 94.5L298.147 94.5L298.147 95.5ZM302.131 95.5L304.123 95.5L304.123 94.5L302.131 94.5L302.131 95.5ZM306.115 95.5L308.107 95.5L308.107 94.5L306.115 94.5L306.115 95.5ZM310.099 95.5L312.091 95.5L312.091 94.5L310.099 94.5L310.099 95.5ZM314.084 95.5L316.076 95.5L316.076 94.5L314.084 94.5L314.084 95.5ZM318.068 95.5L320.06 95.5L320.06 94.5L318.068 94.5L318.068 95.5ZM322.052 95.5L324.044 95.5L324.044 94.5L322.052 94.5L322.052 95.5ZM326.036 95.5L328.028 95.5L328.028 94.5L326.036 94.5L326.036 95.5ZM330.02 95.5L332.012 95.5L332.012 94.5L330.02 94.5L330.02 95.5ZM334.004 95.5L335 95.5L335 94.5L334.004 94.5L334.004 95.5ZM335 53L334.004 53L334.004 55L335 55L335 53ZM332.012 53L330.02 53L330.02 55L332.012 55L332.012 53ZM328.028 53L326.036 53L326.036 55L328.028 55L328.028 53ZM324.044 53L322.052 53L322.052 55L324.044 55L324.044 53ZM320.06 53L318.067 53L318.067 55L320.06 55L320.06 53ZM316.075 53L314.083 53L314.083 55L316.075 55L316.075 53ZM312.091 53L310.099 53L310.099 55L312.091 55L312.091 53ZM308.107 53L306.115 53L306.115 55L308.107 55L308.107 53ZM304.123 53L302.131 53L302.131 55L304.123 55L304.123 53ZM300.139 53L298.147 53L298.147 55L300.139 55L300.139 53ZM296.155 53L294.163 53L294.163 55L296.155 55L296.155 53ZM292.171 53L290.179 53L290.179 55L292.171 55L292.171 53ZM288.186 53L286.194 53L286.194 55L288.186 55L288.186 53ZM284.202 53L282.21 53L282.21 55L284.202 55L284.202 53ZM280.218 53L278.226 53L278.226 55L280.218 55L280.218 53ZM276.234 53L274.242 53L274.242 55L276.234 55L276.234 53ZM272.25 53L270.258 53L270.258 55L272.25 55L272.25 53ZM268.266 53L266.274 53L266.274 55L268.266 55L268.266 53ZM264.282 53L262.29 53L262.29 55L264.282 55L264.282 53ZM260.298 53L258.306 53L258.306 55L260.298 55L260.298 53ZM256.313 53L254.321 53L254.321 55L256.313 55L256.313 53ZM252.329 53L250.337 53L250.337 55L252.329 55L252.329 53ZM248.345 53L246.353 53L246.353 55L248.345 55L248.345 53ZM244.361 53L242.369 53L242.369 55L244.361 55L244.361 53ZM240.377 53L238.385 53L238.385 55L240.377 55L240.377 53ZM236.393 53L234.401 53L234.401 55L236.393 55L236.393 53ZM232.409 53L230.417 53L230.417 55L232.409 55L232.409 53ZM228.425 53L226.432 53L226.432 55L228.425 55L228.425 53ZM224.44 53L222.448 53L222.448 55L224.44 55L224.44 53ZM220.456 53L218.464 53L218.464 55L220.456 55L220.456 53ZM216.472 53L214.48 53L214.48 55L216.472 55L216.472 53ZM212.488 53L210.496 53L210.496 55L212.488 55L212.488 53ZM208.504 53L206.512 53L206.512 55L208.504 55L208.504 53ZM204.52 53L202.528 53L202.528 55L204.52 55L204.52 53ZM200.536 53L198.544 53L198.544 55L200.536 55L200.536 53ZM196.551 53L194.559 53L194.559 55L196.551 55L196.551 53ZM192.567 53L190.575 53L190.575 55L192.567 55L192.567 53ZM188.583 53L186.591 53L186.591 55L188.583 55L188.583 53ZM184.599 53L182.607 53L182.607 55L184.599 55L184.599 53ZM180.615 53L178.623 53L178.623 55L180.615 55L180.615 53ZM176.631 53L174.639 53L174.639 55L176.631 55L176.631 53ZM172.647 53L170.655 53L170.655 55L172.647 55L172.647 53ZM168.663 53L166.671 53L166.671 55L168.663 55L168.663 53ZM164.678 53L162.686 53L162.686 55L164.678 55L164.678 53ZM160.694 53L158.702 53L158.702 55L160.694 55L160.694 53ZM156.71 53L154.718 53L154.718 55L156.71 55L156.71 53ZM152.726 53L150.734 53L150.734 55L152.726 55L152.726 53ZM148.742 53L146.75 53L146.75 55L148.742 55L148.742 53ZM144.758 53L142.766 53L142.766 55L144.758 55L144.758 53ZM140.774 53L138.782 53L138.782 55L140.774 55L140.774 53ZM136.79 53L134.797 53L134.797 55L136.79 55L136.79 53ZM132.805 53L130.813 53L130.813 55L132.805 55L132.805 53ZM128.821 53L126.829 53L126.829 55L128.821 55L128.821 53ZM124.837 53L122.845 53L122.845 55L124.837 55L124.837 53ZM120.853 53L118.861 53L118.861 55L120.853 55L120.853 53ZM116.869 53L114.877 53L114.877 55L116.869 55L116.869 53ZM112.885 53L110.893 53L110.893 55L112.885 55L112.885 53ZM108.901 53L106.909 53L106.909 55L108.901 55L108.901 53ZM104.916 53L102.924 53L102.924 55L104.916 55L104.916 53ZM100.932 53L98.9403 53L98.9403 55L100.932 55L100.932 53ZM96.9482 53L94.9561 53L94.9561 55L96.9482 55L96.9482 53ZM92.9641 53L90.972 53L90.972 55L92.9641 55L92.9641 53ZM88.98 53L86.9879 53L86.9879 55L88.98 55L88.98 53ZM84.9958 53L84 53L84 55L84.9958 55L84.9958 53ZM84 96L84.996 96L84.996 94L84 94L84 96ZM86.9881 96L88.9802 96L88.9802 94L86.9881 94L86.9881 96ZM90.9722 96L92.9643 96L92.9643 94L90.9722 94L90.9722 96ZM94.9563 96L96.9484 96L96.9484 94L94.9563 94L94.9563 96ZM98.9405 96L100.933 96L100.933 94L98.9405 94L98.9405 96ZM102.925 96L104.917 96L104.917 94L102.925 94L102.925 96ZM106.909 96L108.901 96L108.901 94L106.909 94L106.909 96ZM110.893 96L112.885 96L112.885 94L110.893 94L110.893 96ZM114.877 96L116.869 96L116.869 94L114.877 94L114.877 96ZM118.861 96L120.853 96L120.853 94L118.861 94L118.861 96ZM122.845 96L124.837 96L124.837 94L122.845 94L122.845 96ZM126.829 96L128.821 96L128.821 94L126.829 94L126.829 96ZM130.814 96L132.806 96L132.806 94L130.814 94L130.814 96ZM134.798 96L136.79 96L136.79 94L134.798 94L134.798 96ZM138.782 96L140.774 96L140.774 94L138.782 94L138.782 96ZM142.766 96L144.758 96L144.758 94L142.766 94L142.766 96ZM146.75 96L148.742 96L148.742 94L146.75 94L146.75 96ZM150.734 96L152.726 96L152.726 94L150.734 94L150.734 96ZM154.718 96L156.71 96L156.71 94L154.718 94L154.718 96ZM158.702 96L160.694 96L160.694 94L158.702 94L158.702 96ZM162.687 96L164.679 96L164.679 94L162.687 94L162.687 96ZM166.671 96L168.663 96L168.663 94L166.671 94L166.671 96ZM170.655 96L172.647 96L172.647 94L170.655 94L170.655 96ZM174.639 96L176.631 96L176.631 94L174.639 94L174.639 96ZM178.623 96L180.615 96L180.615 94L178.623 94L178.623 96ZM182.607 96L184.599 96L184.599 94L182.607 94L182.607 96ZM186.591 96L188.583 96L188.583 94L186.591 94L186.591 96ZM190.575 96L192.568 96L192.568 94L190.575 94L190.575 96ZM194.56 96L196.552 96L196.552 94L194.56 94L194.56 96ZM198.544 96L200.536 96L200.536 94L198.544 94L198.544 96ZM202.528 96L204.52 96L204.52 94L202.528 94L202.528 96ZM206.512 96L208.504 96L208.504 94L206.512 94L206.512 96ZM210.496 96L212.488 96L212.488 94L210.496 94L210.496 96ZM214.48 96L216.472 96L216.472 94L214.48 94L214.48 96ZM218.464 96L220.456 96L220.456 94L218.464 94L218.464 96ZM222.449 96L224.441 96L224.441 94L222.449 94L222.449 96ZM226.433 96L228.425 96L228.425 94L226.433 94L226.433 96ZM230.417 96L232.409 96L232.409 94L230.417 94L230.417 96ZM234.401 96L236.393 96L236.393 94L234.401 94L234.401 96ZM238.385 96L240.377 96L240.377 94L238.385 94L238.385 96ZM242.369 96L244.361 96L244.361 94L242.369 94L242.369 96ZM246.353 96L248.345 96L248.345 94L246.353 94L246.353 96ZM250.337 96L252.329 96L252.329 94L250.337 94L250.337 96ZM254.322 96L256.314 96L256.314 94L254.322 94L254.322 96ZM258.306 96L260.298 96L260.298 94L258.306 94L258.306 96ZM262.29 96L264.282 96L264.282 94L262.29 94L262.29 96ZM266.274 96L268.266 96L268.266 94L266.274 94L266.274 96ZM270.258 96L272.25 96L272.25 94L270.258 94L270.258 96ZM274.242 96L276.234 96L276.234 94L274.242 94L274.242 96ZM278.226 96L280.218 96L280.218 94L278.226 94L278.226 96ZM282.21 96L284.203 96L284.203 94L282.21 94L282.21 96ZM286.195 96L288.187 96L288.187 94L286.195 94L286.195 96ZM290.179 96L292.171 96L292.171 94L290.179 94L290.179 96ZM294.163 96L296.155 96L296.155 94L294.163 94L294.163 96ZM298.147 96L300.139 96L300.139 94L298.147 94L298.147 96ZM302.131 96L304.123 96L304.123 94L302.131 94L302.131 96ZM306.115 96L308.107 96L308.107 94L306.115 94L306.115 96ZM310.099 96L312.091 96L312.091 94L310.099 94L310.099 96ZM314.084 96L316.076 96L316.076 94L314.084 94L314.084 96ZM318.068 96L320.06 96L320.06 94L318.068 94L318.068 96ZM322.052 96L324.044 96L324.044 94L322.052 94L322.052 96ZM326.036 96L328.028 96L328.028 94L326.036 94L326.036 96ZM330.02 96L332.012 96L332.012 94L330.02 94L330.02 96ZM334.004 96L335 96L335 94L334.004 94L334.004 96Z" fill="url(#paint3_linear_226_40)" mask="url(#path-5-inside-2_226_40)"/>
<path d="M99 95L230 169" stroke="url(#paint4_linear_226_40)" stroke-dasharray="2 2"/>
<path d="M97 39L254 128" stroke="url(#paint5_linear_226_40)" stroke-dasharray="2 2"/>
<path d="M336 69.2806C336 66.1378 334.407 63.5 331.22 61.3673C327.865 59.1224 323.84 58 319.144 58H105.989C101.293 58 97.2679 59.0663 93.9134 61.199C90.7267 63.4439 89.1333 66.1378 89.1333 69.2806C89.1333 72.4235 90.7267 78.0612 93.9134 80.1939C94.9198 80.8673 95.9261 81.4286 96.9324 81.8776L185.87 134.439H16.856C12.1598 134.439 8.13452 135.505 4.78009 137.638C1.59338 139.883 0 145.577 0 151.719C0 154.862 1.67725 157.556 5.03168 159.801C8.21838 161.934 12.1598 163 16.856 163H243.077C247.773 163 251.715 161.878 254.902 159.633C258.256 157.5 259.933 154.862 259.933 151.719C259.933 148.801 258.508 143.276 255.656 141.143H255.908L254.902 140.638C253.895 139.964 252.805 139.403 251.631 138.954L166.102 86.5612H319.144C323.84 86.5612 327.782 85.4388 330.968 83.1939C334.323 81.0612 336 72.4235 336 69.2806Z" fill="#B742AB" fill-opacity="0.3"/>
<defs>
<linearGradient id="paint0_linear_226_40" x1="349.5" y1="115.114" x2="53" y2="105.5" gradientUnits="userSpaceOnUse">
<stop stop-color="#D9D9D9"/>
<stop offset="1" stop-color="#D9D9D9" stop-opacity="0"/>
</linearGradient>
<linearGradient id="paint1_linear_226_40" x1="20.5757" y1="165.45" x2="262.356" y2="165.45" gradientUnits="userSpaceOnUse">
<stop stop-color="#6556FF"/>
<stop offset="1" stop-color="#461CF4"/>
</linearGradient>
<linearGradient id="paint2_linear_226_40" x1="128.5" y1="128" x2="3" y2="128" gradientUnits="userSpaceOnUse">
<stop stop-color="white"/>
<stop offset="1" stop-color="white" stop-opacity="0"/>
</linearGradient>
<linearGradient id="paint3_linear_226_40" x1="209.5" y1="95" x2="335" y2="95" gradientUnits="userSpaceOnUse">
<stop stop-color="white"/>
<stop offset="1" stop-color="white" stop-opacity="0"/>
</linearGradient>
<linearGradient id="paint4_linear_226_40" x1="201.5" y1="192" x2="67" y2="116" gradientUnits="userSpaceOnUse">
<stop stop-color="white"/>
<stop offset="1" stop-color="white" stop-opacity="0"/>
</linearGradient>
<linearGradient id="paint5_linear_226_40" x1="229" y1="150.5" x2="77.5" y2="54.5" gradientUnits="userSpaceOnUse">
<stop stop-color="white"/>
<stop offset="1" stop-color="white" stop-opacity="0"/>
</linearGradient>
</defs>
</svg>
