<svg width="142" height="190" viewBox="0 0 142 190" fill="none" xmlns="http://www.w3.org/2000/svg">
<path d="M11.7678 179.568L21.7258 167.53V164.8H6.41182V168.232H16.1878L6.20382 180.27V183H22.1158V179.568H11.7678ZM40.9372 183L36.8552 177.15C39.2212 176.136 40.5992 174.134 40.5992 171.404C40.5992 167.322 37.5572 164.8 32.6952 164.8H24.8172V183H29.0292V177.93H32.6952H32.9032L36.4132 183H40.9372ZM36.3352 171.404C36.3352 173.38 35.0352 174.576 32.4612 174.576H29.0292V168.232H32.4612C35.0352 168.232 36.3352 169.402 36.3352 171.404ZM57.3523 176.058C57.3523 171.56 54.1803 168.804 50.0723 168.804C45.8083 168.804 42.6103 171.82 42.6103 176.006C42.6103 180.166 45.7563 183.208 50.5923 183.208C53.1143 183.208 55.0643 182.428 56.3643 180.946L54.2063 178.606C53.2443 179.516 52.1783 179.958 50.6963 179.958C48.5643 179.958 47.0823 178.892 46.6923 177.15H57.2743C57.3003 176.812 57.3523 176.37 57.3523 176.058ZM50.0983 171.872C51.9183 171.872 53.2443 173.016 53.5303 174.784H46.6403C46.9263 172.99 48.2523 171.872 50.0983 171.872ZM69.7828 169.012L65.7788 178.528L61.9048 169.012H57.7188L63.5948 183H67.7808L73.6828 169.012H69.7828ZM77.3658 167.062C78.8738 167.062 79.8878 166.074 79.8878 164.722C79.8878 163.474 78.8738 162.538 77.3658 162.538C75.8578 162.538 74.8438 163.526 74.8438 164.8C74.8438 166.074 75.8578 167.062 77.3658 167.062ZM75.3378 183H79.3938V169.012H75.3378V183ZM96.8601 176.058C96.8601 171.56 93.6881 168.804 89.5801 168.804C85.3161 168.804 82.1181 171.82 82.1181 176.006C82.1181 180.166 85.2641 183.208 90.1001 183.208C92.6221 183.208 94.5721 182.428 95.8721 180.946L93.7141 178.606C92.7521 179.516 91.6861 179.958 90.2041 179.958C88.0721 179.958 86.5901 178.892 86.2001 177.15H96.7821C96.8081 176.812 96.8601 176.37 96.8601 176.058ZM89.6061 171.872C91.4261 171.872 92.7521 173.016 93.0381 174.784H86.1481C86.4341 172.99 87.7601 171.872 89.6061 171.872ZM118.183 169.012L114.777 178.476L111.449 169.012H108.017L104.585 178.476L101.283 169.012H97.4606L102.505 183H106.405L109.655 174.316L112.801 183H116.701L121.771 169.012H118.183Z" fill="#3A3A3A"/>
<path d="M11.771 139.544H10.883V143.768H9.37098V139.76H8.50698V149.408H9.37098V144.56H10.883V149.96H11.771V139.544ZM3.39498 147.248H4.06698C5.20698 147.248 6.39498 147.176 7.83498 146.912L7.73898 146.096C6.46698 146.348 5.35098 146.432 4.33098 146.432V140.792H3.39498V147.248ZM21.3261 139.544H20.3901V149.936H21.3261V144.56H23.0061V143.768H21.3261V139.544ZM13.3101 147.248L13.8381 147.968C17.2341 146.288 18.6141 143.6 18.6141 140.648H13.8141V141.416H17.6781C17.4861 143.9 16.0101 145.904 13.3101 147.248ZM34.8412 140.648H27.6652V141.416H33.9292V141.68C33.9292 142.964 33.9292 144.524 33.5212 146.648L34.4572 146.744C34.8412 144.488 34.8412 143 34.8412 141.68V140.648ZM26.6332 148.424H36.1132V147.656H26.6332V148.424ZM45.5963 139.544H44.6843V149.96H45.5963V139.544ZM37.5803 141.272H41.4923V143.456H37.6043V147.44H38.4683C40.2683 147.44 41.8523 147.368 43.7723 147.056L43.6763 146.288C41.8043 146.6 40.2803 146.672 38.5403 146.672V144.2H42.4283V140.504H37.5803V141.272ZM55.7754 142.688H49.5594V139.928H48.6474V143.432H55.7754V142.688ZM47.3514 145.592H56.8794V144.848H47.3514V145.592ZM48.5994 149.696H55.8474V148.928H49.5114V146.672H48.5994V149.696ZM70.2505 145.496H60.7225V146.288H65.0185V149.96H65.9065V146.288H70.2505V145.496ZM61.8025 142.256C61.8025 143.636 63.2785 144.512 65.4745 144.512C67.6585 144.512 69.1345 143.636 69.1465 142.256C69.1345 140.84 67.6585 139.964 65.4745 139.952C63.2785 139.964 61.8025 140.84 61.8025 142.256ZM62.7625 142.256C62.7385 141.308 63.8425 140.708 65.4745 140.696C67.0945 140.708 68.1985 141.308 68.1865 142.256C68.1985 143.18 67.0945 143.768 65.4745 143.768C63.8425 143.768 62.7385 143.18 62.7625 142.256ZM79.7095 139.544H78.7975V149.96H79.7095V139.544ZM71.6935 141.272H75.6055V143.456H71.7175V147.44H72.5815C74.3815 147.44 75.9655 147.368 77.8855 147.056L77.7895 146.288C75.9175 146.6 74.3935 146.672 72.6535 146.672V144.2H76.5415V140.504H71.6935V141.272ZM90.9926 144.68H86.6726V143.456H89.8646V142.712H83.6006V140.768H89.7926V140.024H82.6886V143.456H85.7846V144.68H81.4886V145.424H90.9926V144.68ZM82.6166 148.064C82.6286 149.264 83.9726 149.936 86.2166 149.936C88.4606 149.936 89.8046 149.264 89.8166 148.064C89.8046 146.876 88.4606 146.192 86.2166 146.192C83.9726 146.192 82.6286 146.876 82.6166 148.064ZM83.5526 148.064C83.5526 147.344 84.5486 146.912 86.2166 146.912C87.8726 146.912 88.8806 147.344 88.8806 148.064C88.8806 148.796 87.8726 149.216 86.2166 149.216C84.5486 149.216 83.5526 148.796 83.5526 148.064ZM93.2757 140.672H92.3637V147.32H93.0357C94.2957 147.308 95.4597 147.248 96.8517 146.96L96.7317 146.168C95.4597 146.42 94.4037 146.492 93.2757 146.504V140.672ZM95.2917 143.792H97.6677V149.432H98.5317V139.784H97.6677V143.048H95.2917V143.792ZM99.8997 149.96H100.764V139.544H99.8997V149.96ZM113.847 139.544H112.935V142.256H110.823V143.024H112.935V145.736H113.847V139.544ZM105.255 144.92L105.735 145.64C106.983 145.172 107.943 144.212 108.399 142.988C108.855 144.056 109.767 144.932 110.943 145.352L111.423 144.608C109.887 144.092 108.843 142.796 108.855 141.44V141.056H111.183V140.288H105.567V141.056H107.919V141.44C107.919 142.94 106.815 144.356 105.255 144.92ZM106.911 148.016C106.899 149.228 108.231 149.936 110.391 149.936C112.563 149.936 113.895 149.228 113.895 148.016C113.895 146.78 112.563 146.072 110.391 146.072C108.231 146.072 106.899 146.78 106.911 148.016ZM107.823 148.016C107.811 147.248 108.807 146.792 110.391 146.792C111.987 146.792 112.983 147.248 112.983 148.016C112.983 148.76 111.987 149.216 110.391 149.216C108.807 149.216 107.811 148.76 107.823 148.016ZM125.13 147.848H120.786V145.592H123.954V140.264H123.042V142.16H117.642V140.264H116.73V145.592H119.874V147.848H115.602V148.616H125.13V147.848ZM117.642 144.848V142.904H123.042V144.848H117.642Z" fill="#959292"/>
<path fill-rule="evenodd" clip-rule="evenodd" d="M63.371 0C69.0317 0 72.8336 4.53948 71.8162 10.0827L68.5957 27.5964H82.6098L85.203 13.4761C86.2204 7.93285 91.6899 3.39337 97.3507 3.39337C103.011 3.39337 106.813 7.93285 105.796 13.4761L103.203 27.5964H132.646C138.307 27.5964 142.491 32.1359 141.948 37.6791C141.405 43.2224 136.325 47.7619 130.665 47.7619H64.8933L62.9503 58.3315H42.3651L44.3082 47.7619H35.9548L28.1827 27.6039H48.0106L51.2311 10.0902C52.2485 4.54697 57.7179 0.00749088 63.3787 0.00749088L63.371 0Z" fill="url(#paint0_linear_28_1325)"/>
<path fill-rule="evenodd" clip-rule="evenodd" d="M78.6167 112.999C72.956 112.999 69.1541 108.46 70.1715 102.917L73.392 85.4031H59.3779L56.7847 99.5234C55.7673 105.067 50.2978 109.606 44.6371 109.606C38.9764 109.606 35.1745 105.067 36.1919 99.5234L38.7851 85.4031H9.34938C3.68865 85.4031 -0.49569 80.8636 0.0474335 75.3203H0.0397839C0.582907 69.7771 5.66226 65.2376 11.323 65.2376H77.0945L79.0375 54.668H99.6226L97.6796 65.2376H114.448L102.331 85.3956H93.9772L90.7643 102.909C89.7469 108.453 84.2775 112.992 78.6167 112.992V112.999Z" fill="url(#paint1_linear_28_1325)"/>
<defs>
<linearGradient id="paint0_linear_28_1325" x1="28.1751" y1="29.162" x2="141.994" y2="29.162" gradientUnits="userSpaceOnUse">
<stop stop-color="#666666"/>
<stop offset="1" stop-color="#353535"/>
</linearGradient>
<linearGradient id="paint1_linear_28_1325" x1="-3.76208" y1="83.8375" x2="118.754" y2="83.8375" gradientUnits="userSpaceOnUse">
<stop stop-color="#6556FF"/>
<stop offset="1" stop-color="#461CF4"/>
</linearGradient>
</defs>
</svg>
