<svg width="18" height="13" viewBox="0 0 18 13" fill="none" xmlns="http://www.w3.org/2000/svg">
<path d="M10 7.5C10 6.2 10.2 5.08333 10.6 4.15C11 3.18333 11.5167 2.4 12.15 1.8C12.7833 1.16667 13.5 0.716667 14.3 0.45C15.1333 0.15 15.95 0 16.75 0V1.75C15.8833 1.75 15.0667 2.05 14.3 2.65C13.5667 3.21667 13.1333 4 13 5C13.1 4.96667 13.2167 4.93333 13.35 4.9C13.45 4.86667 13.5667 4.83333 13.7 4.8C13.8667 4.76667 14.05 4.75 14.25 4.75C15.25 4.75 16.0833 5.13333 16.75 5.9C17.4167 6.63333 17.75 7.5 17.75 8.5C17.75 9.5 17.4 10.3833 16.7 11.15C16.0333 11.8833 15.1333 12.25 14 12.25C12.7333 12.25 11.75 11.7833 11.05 10.85C10.35 9.88333 10 8.76667 10 7.5ZM0 7.5C0 6.2 0.2 5.08333 0.6 4.15C1 3.18333 1.51667 2.4 2.15 1.8C2.78333 1.16667 3.5 0.716667 4.3 0.45C5.13333 0.15 5.95 0 6.75 0V1.75C5.88333 1.75 5.06667 2.05 4.3 2.65C3.56667 3.21667 3.13333 4 3 5C3.1 4.96667 3.21667 4.93333 3.35 4.9C3.45 4.86667 3.56667 4.83333 3.7 4.8C3.86667 4.76667 4.05 4.75 4.25 4.75C5.25 4.75 6.08333 5.13333 6.75 5.9C7.41667 6.63333 7.75 7.5 7.75 8.5C7.75 9.5 7.4 10.3833 6.7 11.15C6.03333 11.8833 5.13333 12.25 4 12.25C2.73333 12.25 1.75 11.7833 1.05 10.85C0.35 9.88333 0 8.76667 0 7.5Z" fill="#6556FF"/>
</svg>
