<svg width="19" height="13" viewBox="0 0 19 13" fill="none" xmlns="http://www.w3.org/2000/svg">
<path d="M8.5 4.75C8.5 6.05 8.3 7.16667 7.9 8.1C7.5 9.06667 6.98333 9.85 6.35 10.45C5.71667 11.0833 5 11.5333 4.2 11.8C3.36666 12.1 2.55 12.25 1.75 12.25V10.5C2.61666 10.5 3.43333 10.2 4.2 9.6C4.93333 9.03333 5.36667 8.25 5.5 7.25C5.4 7.28333 5.28333 7.31667 5.15 7.35C5.05 7.38333 4.93333 7.41667 4.8 7.45C4.63333 7.48333 4.45 7.5 4.25 7.5C3.25 7.5 2.41667 7.11667 1.75 6.35C1.08333 5.61667 0.749998 4.75 0.749998 3.75C0.749998 2.75 1.1 1.86667 1.8 1.1C2.46667 0.366666 3.36667 0 4.5 0C5.76667 0 6.75 0.466666 7.45 1.4C8.15 2.36667 8.5 3.48333 8.5 4.75ZM18.5 4.75C18.5 6.05 18.3 7.16667 17.9 8.1C17.5 9.06667 16.9833 9.85 16.35 10.45C15.7167 11.0833 15 11.5333 14.2 11.8C13.3667 12.1 12.55 12.25 11.75 12.25V10.5C12.6167 10.5 13.4333 10.2 14.2 9.6C14.9333 9.03333 15.3667 8.25 15.5 7.25C15.4 7.28333 15.2833 7.31667 15.15 7.35C15.05 7.38333 14.9333 7.41667 14.8 7.45C14.6333 7.48333 14.45 7.5 14.25 7.5C13.25 7.5 12.4167 7.11667 11.75 6.35C11.0833 5.61667 10.75 4.75 10.75 3.75C10.75 2.75 11.1 1.86667 11.8 1.1C12.4667 0.366666 13.3667 0 14.5 0C15.7667 0 16.75 0.466666 17.45 1.4C18.15 2.36667 18.5 3.48333 18.5 4.75Z" fill="#6556FF"/>
</svg>
