<svg width="24" height="25" viewBox="0 0 24 25" fill="none" xmlns="http://www.w3.org/2000/svg">
<g clip-path="url(#clip0_119_20)">
<path d="M13.9805 15.1992L8.34375 17.3672C7.55078 17.6602 6.83984 16.9141 7.13281 16.1563L9.30078 10.5195C9.42578 10.1875 9.6875 9.92578 10.0195 9.80078L15.6563 7.63281C16.4141 7.33984 17.1602 8.05078 16.8672 8.84375L14.6992 14.4805C14.5742 14.8125 14.3125 15.0742 13.9805 15.1992ZM11.9648 11.25C11.3086 11.25 10.7148 11.8086 10.7148 12.5C10.7148 13.1914 11.3086 13.75 11.9648 13.75C12.6914 13.75 13.25 13.1914 13.25 12.5C13.25 11.8086 12.6914 11.25 11.9648 11.25ZM22 12.5C22 18.0234 17.5234 22.5 12 22.5C6.47656 22.5 2 18.0234 2 12.5C2 6.97656 6.47656 2.5 12 2.5C17.5234 2.5 22 6.97656 22 12.5ZM12 4.375C7.51172 4.375 3.875 8.01172 3.875 12.5C3.875 16.9883 7.51172 20.625 12 20.625C16.4883 20.625 20.125 16.9883 20.125 12.5C20.125 8.01172 16.4883 4.375 12 4.375Z" fill="currentColor"/>
</g>
<defs>
<clipPath id="clip0_119_20">
<rect width="20" height="20" fill="white" transform="translate(2 2.5)"/>
</clipPath>
</defs>
</svg>
