<svg width="20" height="20" viewBox="0 0 20 20" fill="none" xmlns="http://www.w3.org/2000/svg">
<path fill-rule="evenodd" clip-rule="evenodd" d="M9.03326 2C9.75084 2 10.2328 2.64276 10.1038 3.42766L9.69556 5.9075H11.4721L11.8008 3.90814C11.9298 3.12325 12.6231 2.48048 13.3407 2.48048C14.0582 2.48048 14.5402 3.12325 14.4112 3.90814L14.0825 5.9075H17.8149C18.5324 5.9075 19.0629 6.55027 18.994 7.33516C18.9252 8.12005 18.2813 8.76282 17.5637 8.76282H9.22623L8.97992 10.2594H6.37046L6.61676 8.76282H5.55785L4.57263 5.90856H7.0861L7.49434 3.42872C7.62331 2.64383 8.31665 2.00106 9.03423 2.00106L9.03326 2Z" fill="url(#paint0_linear_140_4310)"/>
<path fill-rule="evenodd" clip-rule="evenodd" d="M10.9658 18C10.2482 18 9.76629 17.3573 9.89526 16.5724L10.3035 14.0925H8.52701L8.19829 16.0919C8.06931 16.8768 7.37598 17.5195 6.6584 17.5195C5.94082 17.5195 5.45888 16.8768 5.58785 16.0919L5.91658 14.0925H2.18517C1.46759 14.0925 0.937164 13.4498 1.00601 12.6649H1.00504C1.07389 11.88 1.71777 11.2372 2.43535 11.2372H10.7728L11.0191 9.7406H13.6286L13.3823 11.2372H15.5079L13.9719 14.0915H12.913L12.5057 16.5713C12.3767 17.3562 11.6834 17.999 10.9658 17.999V18Z" fill="url(#paint1_linear_140_4310)"/>
<defs>
<linearGradient id="paint0_linear_140_4310" x1="4.57166" y1="6.12918" x2="18.9998" y2="6.12918" gradientUnits="userSpaceOnUse">
<stop stop-color="#666666"/>
<stop offset="1" stop-color="#353535"/>
</linearGradient>
<linearGradient id="paint1_linear_140_4310" x1="0.523102" y1="13.8708" x2="16.0538" y2="13.8708" gradientUnits="userSpaceOnUse">
<stop stop-color="#6556FF"/>
<stop offset="1" stop-color="#461CF4"/>
</linearGradient>
</defs>
</svg>
