<svg width="25" height="25" viewBox="0 0 25 25" fill="none" xmlns="http://www.w3.org/2000/svg">
<g clip-path="url(#clip0_119_33)">
<path d="M12.5 6.5C13.6 6.5 14.5 7.4 14.5 8.5C14.5 9.6 13.6 10.5 12.5 10.5C11.4 10.5 10.5 9.6 10.5 8.5C10.5 7.4 11.4 6.5 12.5 6.5ZM12.5 15.5C15.2 15.5 18.3 16.79 18.5 17.5V18.5H6.5V17.51C6.7 16.79 9.8 15.5 12.5 15.5M12.5 4.5C10.29 4.5 8.5 6.29 8.5 8.5C8.5 10.71 10.29 12.5 12.5 12.5C14.71 12.5 16.5 10.71 16.5 8.5C16.5 6.29 14.71 4.5 12.5 4.5V4.5ZM12.5 13.5C9.83 13.5 4.5 14.84 4.5 17.5V20.5H20.5V17.5C20.5 14.84 15.17 13.5 12.5 13.5V13.5Z" fill="currentColor"/>
</g>
<defs>
<clipPath id="clip0_119_33">
<rect width="24" height="24" fill="white" transform="translate(0.5 0.5)"/>
</clipPath>
</defs>
</svg>
