<svg width="24" height="23" viewBox="0 0 24 23" fill="currentColor" xmlns="http://www.w3.org/2000/svg">
<path d="M18.7214 22.0601L18.7209 22.0598L12.7755 18.4719C12.2985 18.184 11.7012 18.1843 11.2244 18.4726L5.2913 22.06L5.29111 22.0601C5.26108 22.0783 5.23722 22.0816 5.21806 22.0804C5.1962 22.0789 5.17151 22.0707 5.14876 22.0543C5.12599 22.0378 5.11077 22.0173 5.10291 21.9979C5.09608 21.981 5.09194 21.9587 5.09951 21.9261L6.67504 15.164C6.80136 14.6219 6.61705 14.0544 6.19628 13.6899L0.952379 9.14746L0.952389 9.14745L0.949482 9.14497C0.866055 9.07382 0.90501 8.9346 1.01928 8.92343C1.01961 8.9234 1.01994 8.92337 1.02028 8.92334L7.92914 8.33707C8.48333 8.29004 8.96601 7.94023 9.18321 7.4282L11.8853 1.05814L11.8853 1.05815L11.8869 1.0544C11.9288 0.953221 12.0712 0.953221 12.1131 1.0544L12.1131 1.0544L12.1147 1.05814L14.8168 7.4282C15.034 7.94023 15.5167 8.29004 16.0709 8.33707L22.9807 8.92343C22.981 8.92345 22.9812 8.92347 22.9814 8.92349C23.0968 8.93428 23.1455 9.07127 23.0583 9.14906C23.058 9.14931 23.0577 9.14956 23.0575 9.14981L17.8162 13.6899C17.3955 14.0544 17.2112 14.6219 17.3375 15.164L18.913 21.9261C18.9206 21.9587 18.9164 21.981 18.9096 21.9979C18.9017 22.0173 18.8865 22.0378 18.8638 22.0543C18.841 22.0707 18.8163 22.0789 18.7945 22.0804C18.7753 22.0816 18.7514 22.0783 18.7214 22.0601Z" stroke="#6556FF" stroke-opacity="0.5"/>
</svg>
