<svg width="24" height="23" viewBox="0 0 24 23" fill="currentColor" xmlns="http://www.w3.org/2000/svg">
<path d="M18.7208 22.0598L18.7214 22.0601C18.7514 22.0783 18.7753 22.0816 18.7945 22.0804C18.8163 22.0789 18.841 22.0707 18.8637 22.0543C18.8865 22.0378 18.9017 22.0173 18.9096 21.9979C18.9164 21.9811 18.9206 21.9588 18.913 21.9264L18.7208 22.0598ZM18.7208 22.0598L12.7755 18.4719C12.2985 18.184 11.7012 18.1843 11.2244 18.4726L5.29129 22.06L5.2911 22.0601M18.7208 22.0598L5.2911 22.0601M5.2911 22.0601C5.26108 22.0783 5.23721 22.0816 5.21805 22.0804M5.2911 22.0601L5.21805 22.0804M5.21805 22.0804C5.19619 22.0789 5.1715 22.0707 5.14875 22.0543M5.21805 22.0804L5.14875 22.0543M5.14875 22.0543C5.12599 22.0378 5.11076 22.0173 5.1029 21.9979M5.14875 22.0543L5.1029 21.9979M5.1029 21.9979C5.09609 21.9811 5.09195 21.9588 5.09946 21.9264L5.1029 21.9979ZM17.3375 15.164L18.913 21.9261H5.0995L6.67503 15.164C6.80135 14.6219 6.61704 14.0544 6.19627 13.6899L0.952372 9.14746L0.952381 9.14745L0.949475 9.14497C0.866029 9.0738 0.905019 8.93454 1.01935 8.92342C1.01966 8.9234 1.01996 8.92337 1.02027 8.92334L7.92913 8.33707C8.48333 8.29004 8.96601 7.94023 9.1832 7.4282L11.8853 1.05814L11.8853 1.05815L11.8869 1.0544C11.9288 0.953221 12.0712 0.953221 12.1131 1.0544L12.1131 1.0544L12.1147 1.05814L14.8168 7.4282C15.034 7.94023 15.5167 8.29004 16.0709 8.33707L22.9807 8.92343C22.9809 8.92345 22.9811 8.92346 22.9813 8.92348C23.0968 8.93421 23.1455 9.07125 23.0583 9.14906C23.058 9.14931 23.0577 9.14956 23.0574 9.14981L17.8162 13.6899C17.3955 14.0544 17.2111 14.6219 17.3375 15.164Z" stroke="#6556FF" stroke-opacity="0.5"/>
</svg>
