<svg width="150" height="134" viewBox="0 0 150 134" fill="none" xmlns="http://www.w3.org/2000/svg">
<path fill-rule="evenodd" clip-rule="evenodd" d="M66.9435 0C72.9233 0 76.9395 5.35636 75.8648 11.8971L72.4627 32.5624H87.2668L90.0062 15.9011C91.081 9.36038 96.8587 4.00401 102.839 4.00401C108.818 4.00401 112.835 9.36038 111.76 15.9011L109.02 32.5624H140.123C146.103 32.5624 150.524 37.9188 149.95 44.4596C149.376 51.0003 144.01 56.3567 138.031 56.3567H68.5516L66.4991 68.8284H44.7536L46.8061 56.3567H37.9818L29.7717 32.5713H50.7172L54.1193 11.906C55.194 5.3652 60.9718 0.00883888 66.9516 0.00883888L66.9435 0Z" fill="url(#paint0_linear_146_126)"/>
<path fill-rule="evenodd" clip-rule="evenodd" d="M83.0483 133.333C77.0685 133.333 73.0523 127.977 74.127 121.436L77.5291 100.771H62.725L59.9856 117.432C58.9108 123.973 53.1331 129.329 47.1532 129.329C41.1734 129.329 37.1573 123.973 38.232 117.432L40.9714 100.771H9.87639C3.89658 100.771 -0.523631 95.4143 0.0501073 88.8735H0.0420265C0.615765 82.3327 5.98143 76.9764 11.9612 76.9764H81.4402L83.4927 64.5047H105.238L103.186 76.9764H120.899L108.099 100.762H99.2746L95.8806 121.427C94.8059 127.968 89.0281 133.324 83.0483 133.324V133.333Z" fill="url(#paint1_linear_146_126)"/>
<defs>
<linearGradient id="paint0_linear_146_126" x1="29.7636" y1="34.4098" x2="149.998" y2="34.4098" gradientUnits="userSpaceOnUse">
<stop stop-color="#666666"/>
<stop offset="1" stop-color="#353535"/>
</linearGradient>
<linearGradient id="paint1_linear_146_126" x1="-3.97414" y1="98.9233" x2="125.448" y2="98.9233" gradientUnits="userSpaceOnUse">
<stop stop-color="#6556FF"/>
<stop offset="1" stop-color="#461CF4"/>
</linearGradient>
</defs>
</svg>
