<svg width="21" height="18" viewBox="0 0 21 18" fill="none" xmlns="http://www.w3.org/2000/svg">
<path d="M18.5 2H15.33L13.5 0H7.5L5.67 2H2.5C1.4 2 0.5 2.9 0.5 4V16C0.5 17.1 1.4 18 2.5 18H18.5C19.6 18 20.5 17.1 20.5 16V4C20.5 2.9 19.6 2 18.5 2ZM18.5 16H2.5V4H6.55L8.38 2H12.62L14.45 4H18.5V16ZM10.5 5C7.74 5 5.5 7.24 5.5 10C5.5 12.76 7.74 15 10.5 15C13.26 15 15.5 12.76 15.5 10C15.5 7.24 13.26 5 10.5 5ZM10.5 13C8.85 13 7.5 11.65 7.5 10C7.5 8.35 8.85 7 10.5 7C12.15 7 13.5 8.35 13.5 10C13.5 11.65 12.15 13 10.5 13Z" fill="#D0CFCF"/>
</svg>
