<svg width="39" height="48" viewBox="0 0 39 48" fill="none" xmlns="http://www.w3.org/2000/svg">
<g filter="url(#filter0_d_136_4)">
<mask id="path-1-inside-1_136_4" fill="white">
<path fill-rule="evenodd" clip-rule="evenodd" d="M9 0C6.23858 0 4 2.23858 4 5V26C4 28.7614 6.23858 31 9 31H16.2912L20.5332 39.2658L24.7753 31H30C32.7614 31 35 28.7614 35 26V5C35 2.23858 32.7614 0 30 0H9Z"/>
</mask>
<path fill-rule="evenodd" clip-rule="evenodd" d="M9 0C6.23858 0 4 2.23858 4 5V26C4 28.7614 6.23858 31 9 31H16.2912L20.5332 39.2658L24.7753 31H30C32.7614 31 35 28.7614 35 26V5C35 2.23858 32.7614 0 30 0H9Z" fill="white"/>
<path d="M16.2912 31L17.1809 30.5434L16.902 30H16.2912V31ZM20.5332 39.2658L19.6436 39.7224L20.5332 41.456L21.4229 39.7224L20.5332 39.2658ZM24.7753 31V30H24.1645L23.8856 30.5434L24.7753 31ZM5 5C5 2.79086 6.79086 1 9 1V-1C5.68629 -1 3 1.68629 3 5H5ZM5 26V5H3V26H5ZM9 30C6.79086 30 5 28.2091 5 26H3C3 29.3137 5.68629 32 9 32V30ZM16.2912 30H9V32H16.2912V30ZM21.4229 38.8092L17.1809 30.5434L15.4015 31.4566L19.6436 39.7224L21.4229 38.8092ZM23.8856 30.5434L19.6436 38.8092L21.4229 39.7224L25.6649 31.4566L23.8856 30.5434ZM30 30H24.7753V32H30V30ZM34 26C34 28.2091 32.2091 30 30 30V32C33.3137 32 36 29.3137 36 26H34ZM34 5V26H36V5H34ZM30 1C32.2091 1 34 2.79086 34 5H36C36 1.68629 33.3137 -1 30 -1V1ZM9 1H30V-1H9V1Z" fill="#EDEDED" fill-opacity="0.5" mask="url(#path-1-inside-1_136_4)"/>
</g>
<g clip-path="url(#clip0_136_4)">
<path d="M16.0875 16.6725L18.5638 14.1963L13.1475 8.78875C12.7275 8.36875 12.0013 8.4825 11.7388 9.025C11.1175 10.3288 11.345 11.93 12.4213 13.015L16.0875 16.6725ZM22.02 15.0888C23.3588 15.71 25.24 15.2725 26.6313 13.8813C28.3025 12.21 28.6262 9.8125 27.34 8.52625C26.0625 7.24875 23.665 7.56375 21.985 9.235C20.5938 10.6263 20.1563 12.5075 20.7775 13.8463L12.8588 21.765C12.5175 22.1063 12.5175 22.6575 12.8588 22.9988C13.2 23.34 13.7513 23.34 14.0925 22.9988L19.5 17.6088L24.9075 23.0163C25.2488 23.3575 25.8 23.3575 26.1413 23.0163C26.4825 22.675 26.4825 22.1238 26.1413 21.7825L20.7338 16.375L22.02 15.0888V15.0888Z" fill="white"/>
</g>
<defs>
<filter id="filter0_d_136_4" x="0" y="0" width="39" height="47.2658" filterUnits="userSpaceOnUse" color-interpolation-filters="sRGB">
<feFlood flood-opacity="0" result="BackgroundImageFix"/>
<feColorMatrix in="SourceAlpha" type="matrix" values="0 0 0 0 0 0 0 0 0 0 0 0 0 0 0 0 0 0 127 0" result="hardAlpha"/>
<feOffset dy="4"/>
<feGaussianBlur stdDeviation="2"/>
<feComposite in2="hardAlpha" operator="out"/>
<feColorMatrix type="matrix" values="0 0 0 0 0 0 0 0 0 0 0 0 0 0 0 0 0 0 0.25 0"/>
<feBlend mode="normal" in2="BackgroundImageFix" result="effect1_dropShadow_136_4"/>
<feBlend mode="normal" in="SourceGraphic" in2="effect1_dropShadow_136_4" result="shape"/>
</filter>
<clipPath id="clip0_136_4">
<rect width="21" height="21" fill="white" transform="translate(9 5)"/>
</clipPath>
</defs>
</svg>
