<svg width="10" height="12" viewBox="0 0 10 12" fill="none" xmlns="http://www.w3.org/2000/svg">
<path d="M4.99996 0.166992C2.74246 0.166992 0.916626 1.99283 0.916626 4.25033C0.916626 6.68283 3.49496 10.037 4.55663 11.3145C4.78996 11.5945 5.21579 11.5945 5.44913 11.3145C6.50496 10.037 9.08329 6.68283 9.08329 4.25033C9.08329 1.99283 7.25746 0.166992 4.99996 0.166992ZM4.99996 5.70866C4.19496 5.70866 3.54163 5.05533 3.54163 4.25033C3.54163 3.44533 4.19496 2.79199 4.99996 2.79199C5.80496 2.79199 6.45829 3.44533 6.45829 4.25033C6.45829 5.05533 5.80496 5.70866 4.99996 5.70866Z" fill="#959292"/>
</svg>
