<svg width="16" height="14" viewBox="0 0 16 14" fill="none" xmlns="http://www.w3.org/2000/svg">
<path d="M0.666687 14.0003H3.33335V6.00033H0.666687V14.0003ZM15.3334 6.66699C15.3334 5.93366 14.7334 5.33366 14 5.33366H9.79335L10.4267 2.28699L10.4467 2.07366C10.4467 1.80033 10.3334 1.54699 10.1534 1.36699L9.44669 0.666992L5.06002 5.06033C4.81335 5.30033 4.66669 5.63366 4.66669 6.00033V12.667C4.66669 13.4003 5.26669 14.0003 6.00002 14.0003H12C12.5534 14.0003 13.0267 13.667 13.2267 13.187L15.24 8.48699C15.3 8.33366 15.3334 8.17366 15.3334 8.00033V6.66699Z" fill="currentColor" />
</svg>
