<svg width="24" height="25" viewBox="0 0 24 25" fill="none" xmlns="http://www.w3.org/2000/svg">
<path d="M21.447 6.60501L15.447 3.60501C15.3081 3.53549 15.1549 3.4993 14.9995 3.4993C14.8441 3.4993 14.6909 3.53549 14.552 3.60501L9 6.38201L3.447 3.60501C3.2945 3.52881 3.12506 3.49286 2.95476 3.50057C2.78446 3.50828 2.61895 3.55941 2.47397 3.64908C2.32899 3.73876 2.20933 3.86401 2.12638 4.01294C2.04342 4.16187 1.99992 4.32954 2 4.50001V17.5C2 17.879 2.214 18.225 2.553 18.395L8.553 21.395C8.69193 21.4645 8.84515 21.5007 9.0005 21.5007C9.15585 21.5007 9.30907 21.4645 9.448 21.395L15 18.618L20.553 21.394C20.7051 21.4709 20.8744 21.5074 21.0446 21.4999C21.2149 21.4923 21.3803 21.4411 21.525 21.351C21.82 21.168 22 20.847 22 20.5V7.50001C22 7.12101 21.786 6.77501 21.447 6.60501V6.60501ZM10 8.11801L14 6.11801V16.882L10 18.882V8.11801ZM4 6.11801L8 8.11801V18.882L4 16.882V6.11801ZM20 18.882L16 16.882V6.11801L20 8.11801V18.882Z" fill="currentColor"/>
</svg>
