<svg width="39" height="48" viewBox="0 0 39 48" fill="none" xmlns="http://www.w3.org/2000/svg">
<g filter="url(#filter0_d_194_3004)">
<mask id="path-1-inside-1_194_3004" fill="white">
<path fill-rule="evenodd" clip-rule="evenodd" d="M9 0C6.23858 0 4 2.23858 4 5V26C4 28.7614 6.23858 31 9 31H16.2912L20.5332 39.2658L24.7753 31H30C32.7614 31 35 28.7614 35 26V5C35 2.23858 32.7614 0 30 0H9Z"/>
</mask>
<path fill-rule="evenodd" clip-rule="evenodd" d="M9 0C6.23858 0 4 2.23858 4 5V26C4 28.7614 6.23858 31 9 31H16.2912L20.5332 39.2658L24.7753 31H30C32.7614 31 35 28.7614 35 26V5C35 2.23858 32.7614 0 30 0H9Z" fill="white"/>
<path d="M16.2912 31L17.1809 30.5434L16.902 30H16.2912V31ZM20.5332 39.2658L19.6436 39.7224L20.5332 41.456L21.4229 39.7224L20.5332 39.2658ZM24.7753 31V30H24.1645L23.8856 30.5434L24.7753 31ZM5 5C5 2.79086 6.79086 1 9 1V-1C5.68629 -1 3 1.68629 3 5H5ZM5 26V5H3V26H5ZM9 30C6.79086 30 5 28.2091 5 26H3C3 29.3137 5.68629 32 9 32V30ZM16.2912 30H9V32H16.2912V30ZM21.4229 38.8092L17.1809 30.5434L15.4015 31.4566L19.6436 39.7224L21.4229 38.8092ZM23.8856 30.5434L19.6436 38.8092L21.4229 39.7224L25.6649 31.4566L23.8856 30.5434ZM30 30H24.7753V32H30V30ZM34 26C34 28.2091 32.2091 30 30 30V32C33.3137 32 36 29.3137 36 26H34ZM34 5V26H36V5H34ZM30 1C32.2091 1 34 2.79086 34 5H36C36 1.68629 33.3137 -1 30 -1V1ZM9 1H30V-1H9V1Z" fill="#EDEDED" fill-opacity="0.5" mask="url(#path-1-inside-1_194_3004)"/>
</g>
<g clip-path="url(#clip0_194_3004)">
<path d="M16.0875 16.672L18.5638 14.1958L13.1475 8.78829C12.7275 8.36829 12.0013 8.48204 11.7388 9.02454C11.1175 10.3283 11.345 11.9295 12.4213 13.0145L16.0875 16.672ZM22.02 15.0883C23.3588 15.7095 25.24 15.272 26.6313 13.8808C28.3025 12.2095 28.6262 9.81204 27.34 8.52579C26.0625 7.24829 23.665 7.56329 21.985 9.23454C20.5938 10.6258 20.1563 12.507 20.7775 13.8458L12.8588 21.7645C12.5175 22.1058 12.5175 22.657 12.8588 22.9983C13.2 23.3395 13.7513 23.3395 14.0925 22.9983L19.5 17.6083L24.9075 23.0158C25.2488 23.357 25.8 23.357 26.1413 23.0158C26.4825 22.6745 26.4825 22.1233 26.1413 21.782L20.7338 16.3745L22.02 15.0883Z" fill="white"/>
</g>
<path fill-rule="evenodd" clip-rule="evenodd" d="M18.0332 8C18.7508 8 19.2327 8.66748 19.1037 9.48256L18.6955 12.0578H20.472L20.8007 9.98151C20.9297 9.16644 21.623 8.49896 22.3406 8.49896C23.0582 8.49896 23.5401 9.16644 23.4112 9.98151L23.0824 12.0578H26.8148C27.5324 12.0578 28.0628 12.7252 27.994 13.5403C27.9251 14.3554 27.2812 15.0229 26.5637 15.0229H18.2262L17.9799 16.577H15.3704L15.6167 15.0229H14.5578L13.5726 12.0589H16.086L16.4943 9.48366C16.6233 8.66858 17.3166 8.0011 18.0342 8.0011L18.0332 8Z" fill="url(#paint0_linear_194_3004)"/>
<path fill-rule="evenodd" clip-rule="evenodd" d="M19.9658 24.6151C19.2482 24.6151 18.7663 23.9476 18.8953 23.1325L19.3035 20.5573H17.527L17.1983 22.6336C17.0693 23.4487 16.376 24.1161 15.6584 24.1161C14.9408 24.1161 14.4589 23.4487 14.5879 22.6336L14.9166 20.5573H11.1852C10.4676 20.5573 9.93716 19.8899 10.006 19.0748H10.005C10.0739 18.2597 10.7178 17.5922 11.4354 17.5922H19.7728L20.0192 16.0381H22.6286L22.3823 17.5922H24.5079L22.9719 20.5562H21.913L21.5057 23.1314C21.3767 23.9465 20.6834 24.614 19.9658 24.614V24.6151Z" fill="url(#paint1_linear_194_3004)"/>
<defs>
<filter id="filter0_d_194_3004" x="0" y="0" width="39" height="47.2656" filterUnits="userSpaceOnUse" color-interpolation-filters="sRGB">
<feFlood flood-opacity="0" result="BackgroundImageFix"/>
<feColorMatrix in="SourceAlpha" type="matrix" values="0 0 0 0 0 0 0 0 0 0 0 0 0 0 0 0 0 0 127 0" result="hardAlpha"/>
<feOffset dy="4"/>
<feGaussianBlur stdDeviation="2"/>
<feComposite in2="hardAlpha" operator="out"/>
<feColorMatrix type="matrix" values="0 0 0 0 0 0 0 0 0 0 0 0 0 0 0 0 0 0 0.25 0"/>
<feBlend mode="normal" in2="BackgroundImageFix" result="effect1_dropShadow_194_3004"/>
<feBlend mode="normal" in="SourceGraphic" in2="effect1_dropShadow_194_3004" result="shape"/>
</filter>
<linearGradient id="paint0_linear_194_3004" x1="13.5716" y1="12.288" x2="27.9998" y2="12.288" gradientUnits="userSpaceOnUse">
<stop stop-color="#666666"/>
<stop offset="1" stop-color="#353535"/>
</linearGradient>
<linearGradient id="paint1_linear_194_3004" x1="9.5231" y1="20.3271" x2="25.0538" y2="20.3271" gradientUnits="userSpaceOnUse">
<stop stop-color="#6556FF"/>
<stop offset="1" stop-color="#461CF4"/>
</linearGradient>
<clipPath id="clip0_194_3004">
<rect width="21" height="21" fill="white" transform="translate(9 5)"/>
</clipPath>
</defs>
</svg>
