<svg width="18" height="16" viewBox="0 0 18 16" fill="none" xmlns="http://www.w3.org/2000/svg">
<path fill-rule="evenodd" clip-rule="evenodd" d="M8.03326 0C8.75084 0 9.23278 0.642765 9.10381 1.42766L8.69556 3.9075H10.4721L10.8008 1.90814C10.9298 1.12325 11.6231 0.480483 12.3407 0.480483C13.0582 0.480483 13.5402 1.12325 13.4112 1.90814L13.0825 3.9075H16.8149C17.5324 3.9075 18.0629 4.55027 17.994 5.33516C17.9252 6.12005 17.2813 6.76282 16.5637 6.76282H8.22623L7.97992 8.25942H5.37046L5.61676 6.76282H4.55785L3.57263 3.90856H6.0861L6.49434 1.42872C6.62331 0.643825 7.31665 0.00106067 8.03423 0.00106067L8.03326 0Z" fill="url(#paint0_linear_1409_93)"/>
<path fill-rule="evenodd" clip-rule="evenodd" d="M9.96581 15.9997C9.24823 15.9997 8.76629 15.3569 8.89526 14.572L9.30351 12.0922H7.52701L7.19829 14.0915C7.06931 14.8764 6.37598 15.5192 5.6584 15.5192C4.94082 15.5192 4.45888 14.8764 4.58785 14.0915L4.91658 12.0922H1.18517C0.46759 12.0922 -0.0628359 11.4494 0.00601289 10.6645H0.00504318C0.073892 9.8796 0.717773 9.23684 1.43535 9.23684H9.77284L10.0191 7.74023H12.6286L12.3823 9.23684H14.5079L12.9719 12.0911H11.913L11.5057 14.5709C11.3767 15.3558 10.6834 15.9986 9.96581 15.9986V15.9997Z" fill="url(#paint1_linear_1409_93)"/>
<defs>
<linearGradient id="paint0_linear_1409_93" x1="3.57166" y1="4.12918" x2="17.9998" y2="4.12918" gradientUnits="userSpaceOnUse">
<stop stop-color="#666666"/>
<stop offset="1" stop-color="#353535"/>
</linearGradient>
<linearGradient id="paint1_linear_1409_93" x1="-0.476898" y1="11.8705" x2="15.0538" y2="11.8705" gradientUnits="userSpaceOnUse">
<stop stop-color="#6556FF"/>
<stop offset="1" stop-color="#461CF4"/>
</linearGradient>
</defs>
</svg>
