<svg width="22" height="21" viewBox="0 0 22 21" fill="none" xmlns="http://www.w3.org/2000/svg"><path d="M19 13.8096L20.9 11.9096C21.68 11.1296 21.68 9.85965 20.9 9.07965L19 7.18965V4.49965C19 3.39965 18.1 2.49965 17 2.49965H14.31L12.41 0.599648C11.63 -0.180352 10.36 -0.180352 9.58001 0.599648L7.69001 2.49965H5.00001C3.90001 2.49965 3.00001 3.39965 3.00001 4.49965V7.18965L1.10001 9.08965C0.320015 9.86965 0.320015 11.1396 1.10001 11.9196L3.00001 13.8196V16.4996C3.00001 17.5996 3.90001 18.4996 5.00001 18.4996H7.69001L9.59001 20.3996C10.37 21.1796 11.64 21.1796 12.42 20.3996L14.32 18.4996H17C18.1 18.4996 19 17.5996 19 16.4996V13.8096ZM11 16.4996C7.69001 16.4996 5.00001 13.8096 5.00001 10.4996C5.00001 7.18965 7.69001 4.49965 11 4.49965C14.31 4.49965 17 7.18965 17 10.4996C17 13.8096 14.31 16.4996 11 16.4996Z" fill="#959292"></path></svg>